<?xml version="1.0" encoding="UTF-8"?>
<!DOCTYPE svg PUBLIC "-//W3C//DTD SVG 1.1//EN" "http://www.w3.org/Graphics/SVG/1.1/DTD/svg11.dtd">
<!-- Creator: CorelDRAW X7 -->
<svg xmlns="http://www.w3.org/2000/svg" xml:space="preserve" width="50px" height="50px" version="1.1" style="shape-rendering:geometricPrecision; text-rendering:geometricPrecision; image-rendering:optimizeQuality; fill-rule:evenodd; clip-rule:evenodd"
viewBox="0 0 50 50"
 xmlns:xlink="http://www.w3.org/1999/xlink">
 <defs>
  <style type="text/css">
   <![CDATA[
    .str0 {stroke:#E6E6E6;stroke-width:0.900028}
    .fil0 {fill:#E6E6E6}
   ]]>
  </style>
 </defs>
 <g id="Camada_x0020_1">
  <metadata id="CorelCorpID_0Corel-Layer"/>
  <g id="_337586384">
   <g>
    <path class="fil0 str0" d="M21 19c-1,0 -1,0 -2,1 0,0 -1,0 -2,1 -1,0 -2,1 -3,3 -1,1 -2,2 -3,2 0,1 -1,1 -2,1 -1,0 -1,0 -2,0 -1,0 -1,0 -2,-1 0,0 0,-1 0,-1 1,0 1,-1 1,-1 1,0 1,1 1,1 0,0 0,0 0,0 0,0 0,0 0,-1 0,0 -1,-1 -2,0 0,0 -1,0 -1,1 0,0 0,1 0,2 0,1 2,3 4,3 2,1 5,1 8,1 1,-1 2,-1 3,-1 2,-1 4,-2 6,-3 0,0 1,-1 1,-1 0,0 0,0 0,0 0,0 0,0 0,0 0,0 1,1 1,1 2,1 5,3 7,3 1,1 3,1 4,1 2,0 4,0 5,0 3,-1 4,-2 5,-4 0,-1 0,-2 0,-2 -1,-1 -1,-1 -1,-1 -1,0 -1,0 -1,0 -1,0 -1,0 -1,0 0,0 0,0 0,1 0,0 0,0 0,0 0,-1 0,-1 1,-1 0,1 1,2 0,3 0,0 -1,0 -2,0 -2,0 -3,0 -4,-1 0,0 -1,-1 -3,-2 -1,-2 -2,-3 -3,-4 -2,-1 -4,-1 -6,-1 -1,1 -1,1 -2,2l0 0 -1 0c0,-1 -2,-2 -3,-2 0,0 -1,0 -1,0l0 0z"/>
   </g>
  </g>
 </g>
</svg>
