<?xml version="1.0" encoding="UTF-8" standalone="no"?>
<svg
   xmlns:dc="http://purl.org/dc/elements/1.1/"
   xmlns:cc="http://creativecommons.org/ns#"
   xmlns:rdf="http://www.w3.org/1999/02/22-rdf-syntax-ns#"
   xmlns:svg="http://www.w3.org/2000/svg"
   xmlns="http://www.w3.org/2000/svg"
   xmlns:sodipodi="http://sodipodi.sourceforge.net/DTD/sodipodi-0.dtd"
   xmlns:inkscape="http://www.inkscape.org/namespaces/inkscape"
   version="1.1"
   id="svg2"
   width="500"
   height="500"
   viewBox="0 0 500 500.00001"
   sodipodi:docname="teste do teste.svg"
   inkscape:version="1.0.2-2 (e86c870879, 2021-01-15)"
   inkscape:export-filename="C:\Users\felip\Dropbox\My PC (LAPTOP-1VLFSC9P)\Desktop\kalunga\teste.png"
   inkscape:export-xdpi="96"
   inkscape:export-ydpi="96">
  <sodipodi:namedview
     pagecolor="#ffffff"
     bordercolor="#666666"
     borderopacity="1"
     objecttolerance="10"
     gridtolerance="10"
     guidetolerance="10"
     inkscape:pageopacity="0"
     inkscape:pageshadow="2"
     inkscape:window-width="1366"
     inkscape:window-height="705"
     id="namedview46"
     showgrid="false"
     inkscape:zoom="0.68506595"
     inkscape:cx="50.157858"
     inkscape:cy="94.686925"
     inkscape:window-x="1358"
     inkscape:window-y="56"
     inkscape:window-maximized="1"
     inkscape:current-layer="svg2"
     showguides="true"
     inkscape:guide-bbox="true"
     inkscape:document-rotation="0" />
  <title
     id="title179">oculos</title>
  <metadata
     id="metadata8">
    <rdf:RDF>
      <cc:Work
         rdf:about="">
        <dc:format>image/svg+xml</dc:format>
        <dc:type
           rdf:resource="http://purl.org/dc/dcmitype/StillImage" />
        <dc:title>oculos</dc:title>
      </cc:Work>
    </rdf:RDF>
  </metadata>
  <defs
     id="defs6">
    <inkscape:path-effect
       effect="envelope"
       id="path-effect135"
       is_visible="true"
       lpeversion="1"
       yy="true"
       xx="true"
       bendpath1="M 24.739769,184.18366 H 205.9177"
       bendpath2="m 205.9177,184.18366 v 10.09763"
       bendpath3="M 24.739769,194.28129 H 205.9177"
       bendpath4="m 24.739769,184.18366 v 10.09763" />
    <clipPath
       clipPathUnits="userSpaceOnUse"
       id="clipPath277">
      <path
         id="path279"
         style="fill:#ff0000;fill-opacity:1;fill-rule:nonzero;stroke:none"
         d="m 28.201172,28.28125 v 99.73828 H 168.0957 V 28.28125 Z m 41.232422,29.931641 c 0.69322,0.05619 1.464905,0.608868 1.976562,1.802734 0.174944,0.408201 0.334123,0.823798 0.525391,1.224609 0.274294,0.574795 0.938174,1.194811 0.619141,2.335938 -0.151642,0.542393 -1.110971,0.601327 -1.236329,1.15039 -0.08652,0.378935 0.717153,-0.298332 1.076172,-0.447265 -0.06479,1.633646 -0.04843,0.874462 -0.02344,3.40625 0.0068,0.689482 0.156209,1.389902 0.0332,2.068359 -0.876552,4.834862 -2.667019,9.404089 -4.460938,13.947266 -0.691495,1.843889 -1.701802,3.520675 -3.103515,4.90625 -0.3571,0.352989 -1.33109,1.046781 -1.585938,1.527344 -0.169198,1.081424 -2.177785,1.486041 -3.042968,1.292968 -0.297709,-0.06644 -0.552043,-0.266308 -0.84375,-0.355468 -0.114996,-0.03515 0.204718,0.127606 0.30664,0.191406 C 59.026513,91.55492 58.413221,90.961007 57.820306,90.738281 57.49846,90.61738 57.158534,90.548145 56.828119,90.453125 55.923122,90.183323 55.585896,90.08295 55.1914,89.925781 c -0.11818,0.880605 -0.231337,1.674817 -0.365234,2.835938 -0.135299,1.173317 -0.07983,2.360572 -0.158203,3.539062 -0.07786,1.170809 -0.206837,2.337056 -0.310547,3.50586 -0.111445,1.258349 -0.373091,2.491789 -0.642578,3.722659 0.211802,0.59755 0.164199,1.38206 -0.355469,2.25586 -0.744309,1.25152 -0.447906,0.99331 -3.511719,-0.72266 -0.21993,-0.12317 0.07069,-0.50106 0.121094,-0.74805 0.326639,-1.60068 0.755599,-3.18503 0.902344,-4.818356 0.10039,-1.120037 0.224451,-2.23744 0.300781,-3.359375 0.08824,-1.297022 0.04205,-2.603347 0.193359,-3.894531 0.187164,-1.59717 0.350055,-2.801988 0.513672,-3.925782 -0.31945,-0.211263 -0.638495,-0.436749 -0.771484,-0.779297 -0.264614,-0.681584 -0.114125,-1.456681 -0.171875,-2.185547 -0.11697,-1.476315 0.603918,-0.786968 1.396484,0.203126 0.472481,-2.477801 1.052531,-4.561578 2.132813,-8.761719 0.756746,-2.942233 1.499225,-5.888118 2.322265,-8.8125 0.184914,-0.657028 0.465961,-1.284323 0.699219,-1.925781 0.517867,-1.424134 1.438147,-1.995475 2.210938,-1.916016 0.993587,0.102161 1.743954,1.282252 1.078125,3.113281 -0.233257,0.641459 -0.516812,1.266644 -0.701172,1.923828 -0.791646,2.821973 -1.49732,5.66662 -2.22461,8.50586 -1.083799,4.231003 -1.653735,6.230302 -2.113281,8.664062 0.707789,0.324484 0.959481,0.416909 2.189453,0.785156 0.296239,0.105366 1.901134,0.520608 1.71875,0.658203 0.22864,-0.0051 0.359069,0.0045 0.708985,0.04102 0.07032,0.02378 0.140372,0.04917 0.210937,0.07227 0.198477,-0.244297 0.389003,-0.49632 0.605469,-0.72461 0.507127,-0.534828 1.211883,-0.909565 1.673828,-1.49414 1.141343,-1.444331 1.043296,-1.523741 1.845703,-3.269532 1.336699,-3.374482 1.834591,-4.435194 2.902344,-7.916015 0.476095,-1.552046 1.013883,-3.094095 1.314453,-4.689453 0.130143,-0.69076 -0.027,-1.406491 -0.0332,-2.109375 -0.02434,-2.751567 -0.04465,-1.906649 0.04297,-3.789063 0.07749,-0.149652 0.175462,-0.291741 0.263672,-0.4375 -0.41756,-0.667237 -0.671469,-1.348009 -0.984376,-2.078125 -0.852761,-1.989777 0.08291,-3.275294 1.238282,-3.18164 z m 0.769531,3.085937 c -0.120967,-0.105156 -0.889482,0.758351 -0.966797,1.171875 -0.04348,0.232577 0.03562,0.457306 0.134766,0.681641 0.349927,-0.556227 0.699099,-1.111931 0.839844,-1.744141 0.01306,-0.05866 0.0095,-0.09435 -0.0078,-0.109375 z m -9.744141,26.736328 c -0.04981,0.0401 -0.853562,1.345158 -0.330078,0.59375 0.129371,-0.185698 0.221155,-0.395258 0.330078,-0.59375 z" />
    </clipPath>
    <clipPath
       clipPathUnits="userSpaceOnUse"
       id="clipPath277-5">
      <path
         id="path279-2"
         style="fill:#ff0000;fill-opacity:1;fill-rule:nonzero;stroke:none"
         d="m 28.201172,28.28125 v 99.73828 H 168.0957 V 28.28125 Z m 41.232422,29.931641 c 0.69322,0.05619 1.464905,0.608868 1.976562,1.802734 0.174944,0.408201 0.334123,0.823798 0.525391,1.224609 0.274294,0.574795 0.938174,1.194811 0.619141,2.335938 -0.151642,0.542393 -1.110971,0.601327 -1.236329,1.15039 -0.08652,0.378935 0.717153,-0.298332 1.076172,-0.447265 -0.06479,1.633646 -0.04843,0.874462 -0.02344,3.40625 0.0068,0.689482 0.156209,1.389902 0.0332,2.068359 -0.876552,4.834862 -2.667019,9.404089 -4.460938,13.947266 -0.691495,1.843889 -1.701802,3.520675 -3.103515,4.90625 -0.3571,0.352989 -1.33109,1.046781 -1.585938,1.527344 -0.169198,1.081424 -2.177785,1.486041 -3.042968,1.292968 -0.297709,-0.06644 -0.552043,-0.266308 -0.84375,-0.355468 -0.114996,-0.03515 0.204718,0.127606 0.30664,0.191406 C 59.026513,91.55492 58.413221,90.961007 57.820306,90.738281 57.49846,90.61738 57.158534,90.548145 56.828119,90.453125 55.923122,90.183323 55.585896,90.08295 55.1914,89.925781 c -0.11818,0.880605 -0.231337,1.674817 -0.365234,2.835938 -0.135299,1.173317 -0.07983,2.360572 -0.158203,3.539062 -0.07786,1.170809 -0.206837,2.337056 -0.310547,3.50586 -0.111445,1.258349 -0.373091,2.491789 -0.642578,3.722659 0.211802,0.59755 0.164199,1.38206 -0.355469,2.25586 -0.744309,1.25152 -0.447906,0.99331 -3.511719,-0.72266 -0.21993,-0.12317 0.07069,-0.50106 0.121094,-0.74805 0.326639,-1.60068 0.755599,-3.18503 0.902344,-4.818356 0.10039,-1.120037 0.224451,-2.23744 0.300781,-3.359375 0.08824,-1.297022 0.04205,-2.603347 0.193359,-3.894531 0.187164,-1.59717 0.350055,-2.801988 0.513672,-3.925782 -0.31945,-0.211263 -0.638495,-0.436749 -0.771484,-0.779297 -0.264614,-0.681584 -0.114125,-1.456681 -0.171875,-2.185547 -0.11697,-1.476315 0.603918,-0.786968 1.396484,0.203126 0.472481,-2.477801 1.052531,-4.561578 2.132813,-8.761719 0.756746,-2.942233 1.499225,-5.888118 2.322265,-8.8125 0.184914,-0.657028 0.465961,-1.284323 0.699219,-1.925781 0.517867,-1.424134 1.438147,-1.995475 2.210938,-1.916016 0.993587,0.102161 1.743954,1.282252 1.078125,3.113281 -0.233257,0.641459 -0.516812,1.266644 -0.701172,1.923828 -0.791646,2.821973 -1.49732,5.66662 -2.22461,8.50586 -1.083799,4.231003 -1.653735,6.230302 -2.113281,8.664062 0.707789,0.324484 0.959481,0.416909 2.189453,0.785156 0.296239,0.105366 1.901134,0.520608 1.71875,0.658203 0.22864,-0.0051 0.359069,0.0045 0.708985,0.04102 0.07032,0.02378 0.140372,0.04917 0.210937,0.07227 0.198477,-0.244297 0.389003,-0.49632 0.605469,-0.72461 0.507127,-0.534828 1.211883,-0.909565 1.673828,-1.49414 1.141343,-1.444331 1.043296,-1.523741 1.845703,-3.269532 1.336699,-3.374482 1.834591,-4.435194 2.902344,-7.916015 0.476095,-1.552046 1.013883,-3.094095 1.314453,-4.689453 0.130143,-0.69076 -0.027,-1.406491 -0.0332,-2.109375 -0.02434,-2.751567 -0.04465,-1.906649 0.04297,-3.789063 0.07749,-0.149652 0.175462,-0.291741 0.263672,-0.4375 -0.41756,-0.667237 -0.671469,-1.348009 -0.984376,-2.078125 -0.852761,-1.989777 0.08291,-3.275294 1.238282,-3.18164 z m 0.769531,3.085937 c -0.120967,-0.105156 -0.889482,0.758351 -0.966797,1.171875 -0.04348,0.232577 0.03562,0.457306 0.134766,0.681641 0.349927,-0.556227 0.699099,-1.111931 0.839844,-1.744141 0.01306,-0.05866 0.0095,-0.09435 -0.0078,-0.109375 z m -9.744141,26.736328 c -0.04981,0.0401 -0.853562,1.345158 -0.330078,0.59375 0.129371,-0.185698 0.221155,-0.395258 0.330078,-0.59375 z" />
    </clipPath>
    <clipPath
       clipPathUnits="userSpaceOnUse"
       id="clipPath277-3">
      <path
         id="path279-6"
         style="fill:#ff0000;fill-opacity:1;fill-rule:nonzero;stroke:none"
         d="m 28.201172,28.28125 v 99.73828 H 168.0957 V 28.28125 Z m 41.232422,29.931641 c 0.69322,0.05619 1.464905,0.608868 1.976562,1.802734 0.174944,0.408201 0.334123,0.823798 0.525391,1.224609 0.274294,0.574795 0.938174,1.194811 0.619141,2.335938 -0.151642,0.542393 -1.110971,0.601327 -1.236329,1.15039 -0.08652,0.378935 0.717153,-0.298332 1.076172,-0.447265 -0.06479,1.633646 -0.04843,0.874462 -0.02344,3.40625 0.0068,0.689482 0.156209,1.389902 0.0332,2.068359 -0.876552,4.834862 -2.667019,9.404089 -4.460938,13.947266 -0.691495,1.843889 -1.701802,3.520675 -3.103515,4.90625 -0.3571,0.352989 -1.33109,1.046781 -1.585938,1.527344 -0.169198,1.081424 -2.177785,1.486041 -3.042968,1.292968 -0.297709,-0.06644 -0.552043,-0.266308 -0.84375,-0.355468 -0.114996,-0.03515 0.204718,0.127606 0.30664,0.191406 C 59.026513,91.55492 58.413221,90.961007 57.820306,90.738281 57.49846,90.61738 57.158534,90.548145 56.828119,90.453125 55.923122,90.183323 55.585896,90.08295 55.1914,89.925781 c -0.11818,0.880605 -0.231337,1.674817 -0.365234,2.835938 -0.135299,1.173317 -0.07983,2.360572 -0.158203,3.539062 -0.07786,1.170809 -0.206837,2.337056 -0.310547,3.50586 -0.111445,1.258349 -0.373091,2.491789 -0.642578,3.722659 0.211802,0.59755 0.164199,1.38206 -0.355469,2.25586 -0.744309,1.25152 -0.447906,0.99331 -3.511719,-0.72266 -0.21993,-0.12317 0.07069,-0.50106 0.121094,-0.74805 0.326639,-1.60068 0.755599,-3.18503 0.902344,-4.818356 0.10039,-1.120037 0.224451,-2.23744 0.300781,-3.359375 0.08824,-1.297022 0.04205,-2.603347 0.193359,-3.894531 0.187164,-1.59717 0.350055,-2.801988 0.513672,-3.925782 -0.31945,-0.211263 -0.638495,-0.436749 -0.771484,-0.779297 -0.264614,-0.681584 -0.114125,-1.456681 -0.171875,-2.185547 -0.11697,-1.476315 0.603918,-0.786968 1.396484,0.203126 0.472481,-2.477801 1.052531,-4.561578 2.132813,-8.761719 0.756746,-2.942233 1.499225,-5.888118 2.322265,-8.8125 0.184914,-0.657028 0.465961,-1.284323 0.699219,-1.925781 0.517867,-1.424134 1.438147,-1.995475 2.210938,-1.916016 0.993587,0.102161 1.743954,1.282252 1.078125,3.113281 -0.233257,0.641459 -0.516812,1.266644 -0.701172,1.923828 -0.791646,2.821973 -1.49732,5.66662 -2.22461,8.50586 -1.083799,4.231003 -1.653735,6.230302 -2.113281,8.664062 0.707789,0.324484 0.959481,0.416909 2.189453,0.785156 0.296239,0.105366 1.901134,0.520608 1.71875,0.658203 0.22864,-0.0051 0.359069,0.0045 0.708985,0.04102 0.07032,0.02378 0.140372,0.04917 0.210937,0.07227 0.198477,-0.244297 0.389003,-0.49632 0.605469,-0.72461 0.507127,-0.534828 1.211883,-0.909565 1.673828,-1.49414 1.141343,-1.444331 1.043296,-1.523741 1.845703,-3.269532 1.336699,-3.374482 1.834591,-4.435194 2.902344,-7.916015 0.476095,-1.552046 1.013883,-3.094095 1.314453,-4.689453 0.130143,-0.69076 -0.027,-1.406491 -0.0332,-2.109375 -0.02434,-2.751567 -0.04465,-1.906649 0.04297,-3.789063 0.07749,-0.149652 0.175462,-0.291741 0.263672,-0.4375 -0.41756,-0.667237 -0.671469,-1.348009 -0.984376,-2.078125 -0.852761,-1.989777 0.08291,-3.275294 1.238282,-3.18164 z m 0.769531,3.085937 c -0.120967,-0.105156 -0.889482,0.758351 -0.966797,1.171875 -0.04348,0.232577 0.03562,0.457306 0.134766,0.681641 0.349927,-0.556227 0.699099,-1.111931 0.839844,-1.744141 0.01306,-0.05866 0.0095,-0.09435 -0.0078,-0.109375 z m -9.744141,26.736328 c -0.04981,0.0401 -0.853562,1.345158 -0.330078,0.59375 0.129371,-0.185698 0.221155,-0.395258 0.330078,-0.59375 z" />
    </clipPath>
    <filter
       style="color-interpolation-filters:sRGB"
       id="filter135"
       x="-9.3075192e-07"
       width="1.0000019"
       y="-1.6884291e-06"
       height="1.0000035">
      <feGaussianBlur
         stdDeviation="0.00015861328"
         id="feGaussianBlur137" />
    </filter>
    <filter
       style="color-interpolation-filters:sRGB"
       id="filter135-1"
       x="-9.3075192e-07"
       width="1.0000019"
       y="-1.6884291e-06"
       height="1.0000035">
      <feGaussianBlur
         stdDeviation="0.00015861328"
         id="feGaussianBlur137-6" />
    </filter>
    <filter
       style="color-interpolation-filters:sRGB"
       id="filter135-8"
       x="-9.3075192e-07"
       width="1.0000019"
       y="-1.6884291e-06"
       height="1.0000035">
      <feGaussianBlur
         stdDeviation="0.00015861328"
         id="feGaussianBlur137-0" />
    </filter>
    <filter
       style="color-interpolation-filters:sRGB"
       id="filter1141"
       x="-9.3075192e-07"
       width="1.0000019"
       y="-1.6884291e-06"
       height="1.0000035">
      <feGaussianBlur
         stdDeviation="0.00015861328"
         id="feGaussianBlur1139" />
    </filter>
    <filter
       style="color-interpolation-filters:sRGB"
       id="filter1145"
       x="-9.3075192e-07"
       width="1.0000019"
       y="-1.6884291e-06"
       height="1.0000035">
      <feGaussianBlur
         stdDeviation="0.00015861328"
         id="feGaussianBlur1143" />
    </filter>
    <filter
       style="color-interpolation-filters:sRGB"
       id="filter135-1-5"
       x="-9.3075192e-07"
       width="1.0000019"
       y="-1.6884291e-06"
       height="1.0000035">
      <feGaussianBlur
         stdDeviation="0.00015861328"
         id="feGaussianBlur137-6-9" />
    </filter>
    <clipPath
       clipPathUnits="userSpaceOnUse"
       id="clipPath277-33">
      <path
         id="path279-3"
         style="fill:#ff0000;fill-opacity:1;fill-rule:nonzero;stroke:none"
         d="m 28.201172,28.28125 v 99.73828 H 168.0957 V 28.28125 Z m 41.232422,29.931641 c 0.69322,0.05619 1.464905,0.608868 1.976562,1.802734 0.174944,0.408201 0.334123,0.823798 0.525391,1.224609 0.274294,0.574795 0.938174,1.194811 0.619141,2.335938 -0.151642,0.542393 -1.110971,0.601327 -1.236329,1.15039 -0.08652,0.378935 0.717153,-0.298332 1.076172,-0.447265 -0.06479,1.633646 -0.04843,0.874462 -0.02344,3.40625 0.0068,0.689482 0.156209,1.389902 0.0332,2.068359 -0.876552,4.834862 -2.667019,9.404089 -4.460938,13.947266 -0.691495,1.843889 -1.701802,3.520675 -3.103515,4.90625 -0.3571,0.352989 -1.33109,1.046781 -1.585938,1.527344 -0.169198,1.081424 -2.177785,1.486041 -3.042968,1.292968 -0.297709,-0.06644 -0.552043,-0.266308 -0.84375,-0.355468 -0.114996,-0.03515 0.204718,0.127606 0.30664,0.191406 C 59.026513,91.55492 58.413221,90.961007 57.820306,90.738281 57.49846,90.61738 57.158534,90.548145 56.828119,90.453125 55.923122,90.183323 55.585896,90.08295 55.1914,89.925781 c -0.11818,0.880605 -0.231337,1.674817 -0.365234,2.835938 -0.135299,1.173317 -0.07983,2.360572 -0.158203,3.539062 -0.07786,1.170809 -0.206837,2.337056 -0.310547,3.50586 -0.111445,1.258349 -0.373091,2.491789 -0.642578,3.722659 0.211802,0.59755 0.164199,1.38206 -0.355469,2.25586 -0.744309,1.25152 -0.447906,0.99331 -3.511719,-0.72266 -0.21993,-0.12317 0.07069,-0.50106 0.121094,-0.74805 0.326639,-1.60068 0.755599,-3.18503 0.902344,-4.818356 0.10039,-1.120037 0.224451,-2.23744 0.300781,-3.359375 0.08824,-1.297022 0.04205,-2.603347 0.193359,-3.894531 0.187164,-1.59717 0.350055,-2.801988 0.513672,-3.925782 -0.31945,-0.211263 -0.638495,-0.436749 -0.771484,-0.779297 -0.264614,-0.681584 -0.114125,-1.456681 -0.171875,-2.185547 -0.11697,-1.476315 0.603918,-0.786968 1.396484,0.203126 0.472481,-2.477801 1.052531,-4.561578 2.132813,-8.761719 0.756746,-2.942233 1.499225,-5.888118 2.322265,-8.8125 0.184914,-0.657028 0.465961,-1.284323 0.699219,-1.925781 0.517867,-1.424134 1.438147,-1.995475 2.210938,-1.916016 0.993587,0.102161 1.743954,1.282252 1.078125,3.113281 -0.233257,0.641459 -0.516812,1.266644 -0.701172,1.923828 -0.791646,2.821973 -1.49732,5.66662 -2.22461,8.50586 -1.083799,4.231003 -1.653735,6.230302 -2.113281,8.664062 0.707789,0.324484 0.959481,0.416909 2.189453,0.785156 0.296239,0.105366 1.901134,0.520608 1.71875,0.658203 0.22864,-0.0051 0.359069,0.0045 0.708985,0.04102 0.07032,0.02378 0.140372,0.04917 0.210937,0.07227 0.198477,-0.244297 0.389003,-0.49632 0.605469,-0.72461 0.507127,-0.534828 1.211883,-0.909565 1.673828,-1.49414 1.141343,-1.444331 1.043296,-1.523741 1.845703,-3.269532 1.336699,-3.374482 1.834591,-4.435194 2.902344,-7.916015 0.476095,-1.552046 1.013883,-3.094095 1.314453,-4.689453 0.130143,-0.69076 -0.027,-1.406491 -0.0332,-2.109375 -0.02434,-2.751567 -0.04465,-1.906649 0.04297,-3.789063 0.07749,-0.149652 0.175462,-0.291741 0.263672,-0.4375 -0.41756,-0.667237 -0.671469,-1.348009 -0.984376,-2.078125 -0.852761,-1.989777 0.08291,-3.275294 1.238282,-3.18164 z m 0.769531,3.085937 c -0.120967,-0.105156 -0.889482,0.758351 -0.966797,1.171875 -0.04348,0.232577 0.03562,0.457306 0.134766,0.681641 0.349927,-0.556227 0.699099,-1.111931 0.839844,-1.744141 0.01306,-0.05866 0.0095,-0.09435 -0.0078,-0.109375 z m -9.744141,26.736328 c -0.04981,0.0401 -0.853562,1.345158 -0.330078,0.59375 0.129371,-0.185698 0.221155,-0.395258 0.330078,-0.59375 z" />
    </clipPath>
    <clipPath
       clipPathUnits="userSpaceOnUse"
       id="clipPath277-5-2">
      <path
         id="path279-2-2"
         style="fill:#ff0000;fill-opacity:1;fill-rule:nonzero;stroke:none"
         d="m 28.201172,28.28125 v 99.73828 H 168.0957 V 28.28125 Z m 41.232422,29.931641 c 0.69322,0.05619 1.464905,0.608868 1.976562,1.802734 0.174944,0.408201 0.334123,0.823798 0.525391,1.224609 0.274294,0.574795 0.938174,1.194811 0.619141,2.335938 -0.151642,0.542393 -1.110971,0.601327 -1.236329,1.15039 -0.08652,0.378935 0.717153,-0.298332 1.076172,-0.447265 -0.06479,1.633646 -0.04843,0.874462 -0.02344,3.40625 0.0068,0.689482 0.156209,1.389902 0.0332,2.068359 -0.876552,4.834862 -2.667019,9.404089 -4.460938,13.947266 -0.691495,1.843889 -1.701802,3.520675 -3.103515,4.90625 -0.3571,0.352989 -1.33109,1.046781 -1.585938,1.527344 -0.169198,1.081424 -2.177785,1.486041 -3.042968,1.292968 -0.297709,-0.06644 -0.552043,-0.266308 -0.84375,-0.355468 -0.114996,-0.03515 0.204718,0.127606 0.30664,0.191406 C 59.026513,91.55492 58.413221,90.961007 57.820306,90.738281 57.49846,90.61738 57.158534,90.548145 56.828119,90.453125 55.923122,90.183323 55.585896,90.08295 55.1914,89.925781 c -0.11818,0.880605 -0.231337,1.674817 -0.365234,2.835938 -0.135299,1.173317 -0.07983,2.360572 -0.158203,3.539062 -0.07786,1.170809 -0.206837,2.337056 -0.310547,3.50586 -0.111445,1.258349 -0.373091,2.491789 -0.642578,3.722659 0.211802,0.59755 0.164199,1.38206 -0.355469,2.25586 -0.744309,1.25152 -0.447906,0.99331 -3.511719,-0.72266 -0.21993,-0.12317 0.07069,-0.50106 0.121094,-0.74805 0.326639,-1.60068 0.755599,-3.18503 0.902344,-4.818356 0.10039,-1.120037 0.224451,-2.23744 0.300781,-3.359375 0.08824,-1.297022 0.04205,-2.603347 0.193359,-3.894531 0.187164,-1.59717 0.350055,-2.801988 0.513672,-3.925782 -0.31945,-0.211263 -0.638495,-0.436749 -0.771484,-0.779297 -0.264614,-0.681584 -0.114125,-1.456681 -0.171875,-2.185547 -0.11697,-1.476315 0.603918,-0.786968 1.396484,0.203126 0.472481,-2.477801 1.052531,-4.561578 2.132813,-8.761719 0.756746,-2.942233 1.499225,-5.888118 2.322265,-8.8125 0.184914,-0.657028 0.465961,-1.284323 0.699219,-1.925781 0.517867,-1.424134 1.438147,-1.995475 2.210938,-1.916016 0.993587,0.102161 1.743954,1.282252 1.078125,3.113281 -0.233257,0.641459 -0.516812,1.266644 -0.701172,1.923828 -0.791646,2.821973 -1.49732,5.66662 -2.22461,8.50586 -1.083799,4.231003 -1.653735,6.230302 -2.113281,8.664062 0.707789,0.324484 0.959481,0.416909 2.189453,0.785156 0.296239,0.105366 1.901134,0.520608 1.71875,0.658203 0.22864,-0.0051 0.359069,0.0045 0.708985,0.04102 0.07032,0.02378 0.140372,0.04917 0.210937,0.07227 0.198477,-0.244297 0.389003,-0.49632 0.605469,-0.72461 0.507127,-0.534828 1.211883,-0.909565 1.673828,-1.49414 1.141343,-1.444331 1.043296,-1.523741 1.845703,-3.269532 1.336699,-3.374482 1.834591,-4.435194 2.902344,-7.916015 0.476095,-1.552046 1.013883,-3.094095 1.314453,-4.689453 0.130143,-0.69076 -0.027,-1.406491 -0.0332,-2.109375 -0.02434,-2.751567 -0.04465,-1.906649 0.04297,-3.789063 0.07749,-0.149652 0.175462,-0.291741 0.263672,-0.4375 -0.41756,-0.667237 -0.671469,-1.348009 -0.984376,-2.078125 -0.852761,-1.989777 0.08291,-3.275294 1.238282,-3.18164 z m 0.769531,3.085937 c -0.120967,-0.105156 -0.889482,0.758351 -0.966797,1.171875 -0.04348,0.232577 0.03562,0.457306 0.134766,0.681641 0.349927,-0.556227 0.699099,-1.111931 0.839844,-1.744141 0.01306,-0.05866 0.0095,-0.09435 -0.0078,-0.109375 z m -9.744141,26.736328 c -0.04981,0.0401 -0.853562,1.345158 -0.330078,0.59375 0.129371,-0.185698 0.221155,-0.395258 0.330078,-0.59375 z" />
    </clipPath>
    <clipPath
       clipPathUnits="userSpaceOnUse"
       id="clipPath277-3-7">
      <path
         id="path279-6-1"
         style="fill:#ff0000;fill-opacity:1;fill-rule:nonzero;stroke:none"
         d="m 28.201172,28.28125 v 99.73828 H 168.0957 V 28.28125 Z m 41.232422,29.931641 c 0.69322,0.05619 1.464905,0.608868 1.976562,1.802734 0.174944,0.408201 0.334123,0.823798 0.525391,1.224609 0.274294,0.574795 0.938174,1.194811 0.619141,2.335938 -0.151642,0.542393 -1.110971,0.601327 -1.236329,1.15039 -0.08652,0.378935 0.717153,-0.298332 1.076172,-0.447265 -0.06479,1.633646 -0.04843,0.874462 -0.02344,3.40625 0.0068,0.689482 0.156209,1.389902 0.0332,2.068359 -0.876552,4.834862 -2.667019,9.404089 -4.460938,13.947266 -0.691495,1.843889 -1.701802,3.520675 -3.103515,4.90625 -0.3571,0.352989 -1.33109,1.046781 -1.585938,1.527344 -0.169198,1.081424 -2.177785,1.486041 -3.042968,1.292968 -0.297709,-0.06644 -0.552043,-0.266308 -0.84375,-0.355468 -0.114996,-0.03515 0.204718,0.127606 0.30664,0.191406 C 59.026513,91.55492 58.413221,90.961007 57.820306,90.738281 57.49846,90.61738 57.158534,90.548145 56.828119,90.453125 55.923122,90.183323 55.585896,90.08295 55.1914,89.925781 c -0.11818,0.880605 -0.231337,1.674817 -0.365234,2.835938 -0.135299,1.173317 -0.07983,2.360572 -0.158203,3.539062 -0.07786,1.170809 -0.206837,2.337056 -0.310547,3.50586 -0.111445,1.258349 -0.373091,2.491789 -0.642578,3.722659 0.211802,0.59755 0.164199,1.38206 -0.355469,2.25586 -0.744309,1.25152 -0.447906,0.99331 -3.511719,-0.72266 -0.21993,-0.12317 0.07069,-0.50106 0.121094,-0.74805 0.326639,-1.60068 0.755599,-3.18503 0.902344,-4.818356 0.10039,-1.120037 0.224451,-2.23744 0.300781,-3.359375 0.08824,-1.297022 0.04205,-2.603347 0.193359,-3.894531 0.187164,-1.59717 0.350055,-2.801988 0.513672,-3.925782 -0.31945,-0.211263 -0.638495,-0.436749 -0.771484,-0.779297 -0.264614,-0.681584 -0.114125,-1.456681 -0.171875,-2.185547 -0.11697,-1.476315 0.603918,-0.786968 1.396484,0.203126 0.472481,-2.477801 1.052531,-4.561578 2.132813,-8.761719 0.756746,-2.942233 1.499225,-5.888118 2.322265,-8.8125 0.184914,-0.657028 0.465961,-1.284323 0.699219,-1.925781 0.517867,-1.424134 1.438147,-1.995475 2.210938,-1.916016 0.993587,0.102161 1.743954,1.282252 1.078125,3.113281 -0.233257,0.641459 -0.516812,1.266644 -0.701172,1.923828 -0.791646,2.821973 -1.49732,5.66662 -2.22461,8.50586 -1.083799,4.231003 -1.653735,6.230302 -2.113281,8.664062 0.707789,0.324484 0.959481,0.416909 2.189453,0.785156 0.296239,0.105366 1.901134,0.520608 1.71875,0.658203 0.22864,-0.0051 0.359069,0.0045 0.708985,0.04102 0.07032,0.02378 0.140372,0.04917 0.210937,0.07227 0.198477,-0.244297 0.389003,-0.49632 0.605469,-0.72461 0.507127,-0.534828 1.211883,-0.909565 1.673828,-1.49414 1.141343,-1.444331 1.043296,-1.523741 1.845703,-3.269532 1.336699,-3.374482 1.834591,-4.435194 2.902344,-7.916015 0.476095,-1.552046 1.013883,-3.094095 1.314453,-4.689453 0.130143,-0.69076 -0.027,-1.406491 -0.0332,-2.109375 -0.02434,-2.751567 -0.04465,-1.906649 0.04297,-3.789063 0.07749,-0.149652 0.175462,-0.291741 0.263672,-0.4375 -0.41756,-0.667237 -0.671469,-1.348009 -0.984376,-2.078125 -0.852761,-1.989777 0.08291,-3.275294 1.238282,-3.18164 z m 0.769531,3.085937 c -0.120967,-0.105156 -0.889482,0.758351 -0.966797,1.171875 -0.04348,0.232577 0.03562,0.457306 0.134766,0.681641 0.349927,-0.556227 0.699099,-1.111931 0.839844,-1.744141 0.01306,-0.05866 0.0095,-0.09435 -0.0078,-0.109375 z m -9.744141,26.736328 c -0.04981,0.0401 -0.853562,1.345158 -0.330078,0.59375 0.129371,-0.185698 0.221155,-0.395258 0.330078,-0.59375 z" />
    </clipPath>
    <filter
       style="color-interpolation-filters:sRGB"
       id="filter135-18"
       x="-9.3075192e-07"
       width="1.0000019"
       y="-1.6884291e-06"
       height="1.0000035">
      <feGaussianBlur
         stdDeviation="0.00015861328"
         id="feGaussianBlur137-8" />
    </filter>
  </defs>
  <g
     aria-label="HOMENAGEM KALUNGA AO"
     transform="matrix(0.55476904,0.00167614,-0.00167614,0.55476904,29.001098,6.2065153)"
     id="text155"
     style="font-style:normal;font-weight:normal;font-size:13.3333px;line-height:1.25;font-family:sans-serif;fill:#000000;fill-opacity:1;stroke:none"
     inkscape:path-effect="#path-effect135" />
  <path
     style="fill:#7ba7ff;stroke:#ffffff;stroke-width:1px;stroke-linecap:butt;stroke-linejoin:miter;stroke-opacity:1;filter:url(#filter135-18);fill-opacity:1"
     d="m 101.31322,67.665851 c 3.50063,10.894799 8.00348,22.676976 21.89553,29.070338 4.92821,1.52017 10.04863,1.502752 15.95776,-4.824439 1.82051,-1.619135 3.6457,-3.288326 6.43259,-15.215539 -0.26337,-6.224565 1.70061,-12.38726 -9.89629,-18.926646 -9.53283,-1.892371 -19.08795,-3.691898 -30.55478,2.474072 -2.55857,1.92537 -3.57929,4.509823 -3.83481,7.422214 z"
     id="path28"
     transform="matrix(3.1127643,0,0,3.1127643,-47.693108,-15.734924)" />
  <path
     style="fill:#7ba7ff;stroke:#ffffff;stroke-width:1px;stroke-linecap:butt;stroke-linejoin:miter;stroke-opacity:1;filter:url(#filter135-18);fill-opacity:1"
     d="m 90.551011,72.49029 c 0.502371,-3.796218 1.343309,-9.815983 -5.319254,-13.607392 -1.263726,-1.743369 -12.845796,-2.883576 -18.431831,-3.09259 -2.088941,0.522252 -14.163883,-1.060651 -19.668867,8.65925 -1.88328,7.658187 -0.683998,15.059494 1.360739,22.390346 5.167564,9.580617 12.233582,12.60294 21.029606,9.648878 4.882229,-2.955346 9.875678,-6.281424 16.699982,-15.710353 0.535594,-0.03987 2.148329,-3.311162 4.329625,-8.288139 z"
     id="path30"
     transform="matrix(3.1127643,0,0,3.1127643,-47.693108,-15.734924)" />
  <path
     style="fill:#7ba7ff;stroke:#ffffff;stroke-width:1px;stroke-linecap:butt;stroke-linejoin:miter;stroke-opacity:1;filter:url(#filter135-18);fill-opacity:1"
     d="m 89.527214,78.024695 1.04966,-1.268339 c 1.401006,-0.84702 1.150899,-0.04292 1.224602,0.437358 -1.177933,4.660323 -2.460385,8.203118 -5.729391,10.321652 -0.347476,-0.197557 -1.191229,1.259142 -0.918453,-1.005923 l 1.88064,-3.498866 z"
     id="path36"
     transform="matrix(3.1127643,0,0,3.1127643,-47.693108,-15.734924)" />
  <path
     style="fill:none;stroke:#000000;stroke-width:1px;stroke-linecap:butt;stroke-linejoin:miter;stroke-opacity:1;filter:url(#filter135-18)"
     d="m 88.215139,78.199638 0.656038,0.612301"
     id="path38"
     transform="matrix(3.1127643,0,0,3.1127643,-47.693108,-15.734924)" />
  <path
     style="fill:#7ba7ff;stroke:#ffffff;stroke-width:1px;stroke-linecap:butt;stroke-linejoin:miter;stroke-opacity:1;filter:url(#filter135-18);fill-opacity:1"
     d="m 103.58594,78.023908 -1.04966,-1.268339 c -1.40101,-0.84702 -1.1509,-0.04292 -1.2246,0.437358 1.17794,4.660323 2.46039,8.203118 5.72939,10.321652 0.34748,-0.197557 1.19123,1.259142 0.91845,-1.005923 l -1.88063,-3.498866 z"
     id="path36-0"
     transform="matrix(3.1127643,0,0,3.1127643,-47.693108,-15.734924)" />
  <path
     style="fill:none;stroke:#000000;stroke-width:1px;stroke-linecap:butt;stroke-linejoin:miter;stroke-opacity:1;filter:url(#filter135-18)"
     d="m 104.61607,79.11809 0.65604,-0.306151"
     id="path60"
     transform="matrix(3.1127643,0,0,3.1127643,-47.693108,-15.734924)" />
  <path
     style="fill:none;stroke:#ffffff;stroke-width:1px;stroke-linecap:butt;stroke-linejoin:miter;stroke-opacity:1;filter:url(#filter135-18)"
     d="m 101.18952,65.315483 -1.731853,-2.721478 h -6.308882 l -2.350367,3.587403"
     id="path62"
     transform="matrix(3.1127643,0,0,3.1127643,-47.693108,-15.734924)" />
  <path
     style="fill:none;stroke:#ffffff;stroke-width:1px;stroke-linecap:butt;stroke-linejoin:miter;stroke-opacity:1;filter:url(#filter135-18)"
     d="m 77.314729,57.027344 4.948143,-0.865925 28.575528,-0.247407 4.45332,1.113332"
     id="path66"
     transform="matrix(3.1127643,0,0,3.1127643,-47.693108,-15.734924)" />
  <path
     style="fill:#7ba7ff;stroke:#ffffff;stroke-width:1px;stroke-linecap:butt;stroke-linejoin:miter;stroke-opacity:1;filter:url(#filter135-18);fill-opacity:1"
     d="m 145.5991,76.696211 2.59777,0.371111 c 1.04647,-1.364246 0.66716,-2.049547 0,-2.597775 l -2.22666,-0.247407"
     id="path68"
     transform="matrix(3.1127643,0,0,3.1127643,-47.693108,-15.734924)" />
  <path
     style="fill:#7ba7ff;stroke:#ffffff;stroke-width:1px;stroke-linecap:butt;stroke-linejoin:miter;stroke-opacity:1;filter:url(#filter135-18);fill-opacity:1"
     d="m 46.084045,75.834926 -2.59777,0.371111 c -1.04647,-1.364246 -0.66716,-2.049547 0,-2.597775 l 2.22666,-0.247407"
     id="path68-4"
     transform="matrix(3.1127643,0,0,3.1127643,-47.693108,-15.734924)" />
  <path
     style="fill:#000000;stroke:#000000;stroke-width:1px;stroke-linecap:butt;stroke-linejoin:miter;stroke-opacity:1;filter:url(#filter135-18)"
     d="m 95.431549,102.95411 c 3.152082,-2.8253 7.315661,-3.501172 12.333501,-2.36173 5.05759,2.03144 7.89785,5.64668 11.45878,8.74716 2.16491,1.2484 4.04538,4.13227 7.0852,0.34988 0.20677,-1.37086 1.20897,-2.88209 -2.36173,-3.58633 -0.67062,0.26241 -2.62912,1.03998 -2.01185,0.78724 1.56844,-0.67667 0.92169,-3.56852 4.98589,-1.74943 2.84002,2.55919 2.24203,4.62723 1.92437,6.73532 -0.14689,2.06911 -2.33479,4.61221 -6.38543,4.46105 -3.48868,0.0541 -6.89092,-0.66968 -10.14671,-2.71162 -1.69871,-1.27405 -3.86106,-2.36264 -7.87244,-2.71162 -3.72824,1.26471 -6.9628,1.60375 -8.834638,-0.6123 z"
     id="path96-6"
     transform="matrix(3.1127643,0,0,3.1127643,-47.693108,-15.734924)" />
  <path
     style="fill:#000000;stroke:#000000;stroke-width:1px;stroke-linecap:butt;stroke-linejoin:miter;stroke-opacity:1;filter:url(#filter135-18)"
     d="m 95.431549,102.95411 c -3.15208,-2.8253 -7.31566,-3.50117 -12.333503,-2.36173 -5.05759,2.03144 -7.89785,5.64668 -11.458784,8.74716 -2.16491,1.2484 -4.04538,4.13227 -7.0852,0.34988 -0.20677,-1.37086 -1.20897,-2.88209 2.36173,-3.58633 0.67062,0.26241 2.62912,1.03998 2.01185,0.78724 -1.56844,-0.67667 -0.92169,-3.56852 -4.98589,-1.74943 -2.84002,2.55919 -2.24203,4.62723 -1.92437,6.73532 0.257906,2.02067 3.447948,4.35045 6.38543,4.46105 3.48868,0.0541 6.890924,-0.66968 10.146714,-2.71162 1.69871,-1.27405 3.86106,-2.36264 7.872443,-2.71162 3.72824,1.26471 6.9628,1.60375 8.83464,-0.6123 z"
     id="path96-6-9"
     transform="matrix(3.1127643,0,0,3.1127643,-47.693108,-15.734924)" />
  <path
     id="path166"
     style="fill:#ffffff;stroke:none;stroke-width:0.107877;filter:url(#filter135-18)"
     d="m 72.461988,69.890188 c -0.451441,-0.0071 -0.842471,0.05338 -1.060764,0.20387 -0.519486,0.358132 -0.456015,1.085773 -1.025269,1.381366 -0.577753,0.300017 -1.823668,0.197288 -1.941321,1.039678 -0.100686,0.720811 1.086861,0.468451 1.498995,0.419808 -1.105552,0.74711 -2.519907,0.01593 -3.801413,0.424255 -2.603355,0.829529 -5.299452,2.457337 -7.37074,4.133303 -3.334124,2.697793 -2.651947,7.603835 -3.631446,11.258616 -0.206899,0.771995 -0.917687,1.354318 -1.247796,2.081258 -0.745586,1.641909 -1.117013,3.338867 -1.281928,5.098673 -1.064224,0.335999 -0.188896,1.033968 -0.451199,1.604927 -0.301773,0.65691 -1.258414,1.038825 -1.489439,1.725592 -0.159414,0.473874 0.912067,2.062306 1.238924,2.485196 0.418576,0.54151 3.131957,1.35153 3.343386,0.30994 0.101178,-0.49854 -0.572808,-1.10104 -0.772707,-1.54713 -0.386486,-0.86253 -0.409468,-1.808818 -0.19181,-2.705581 0.980155,0.01437 1.305989,-2.019527 1.624593,-2.705572 1.35148,-2.910155 3.324394,-5.492294 4.638284,-8.428563 h 0.111946 c 1.449192,3.221593 3.016782,5.784867 3.334513,9.365352 0.0822,0.927248 0.318124,2.669852 0.10239,3.53821 -0.132639,0.533804 -0.847338,1.534334 -0.524239,2.057114 0.219315,0.35473 0.834734,0.38213 1.225272,0.40077 1.29452,0.0616 2.608574,0.33487 3.914724,0.33278 0.452495,-7.6e-4 1.328317,-0.12548 1.280563,-0.7056 -0.04138,-0.50155 -0.882757,-0.59846 -1.280563,-0.72593 -1.052726,-0.33704 -1.827669,-0.933847 -2.460781,-1.775771 1.088627,-0.657223 0.467574,-3.075964 0.354953,-4.058362 -0.184867,-1.612462 0.690524,-3.426278 0.338571,-4.994516 -0.350499,-1.56137 -1.03964,-3.369881 -1.549508,-4.890357 -0.18632,-0.555766 -1.039135,-1.115233 -0.926291,-1.74592 0.06978,-0.389796 1.897948,-1.118478 2.305147,-1.108905 0.425543,0.01008 0.985964,0.821102 1.266228,1.085406 1.078116,1.016841 3.139321,1.884176 3.932473,3.019953 0.499802,0.715494 0.968351,2.376524 2.107193,2.287036 l 0.670998,0.208316 c 0.382373,-0.654308 0.284625,-1.065778 0.111948,-1.768784 h 0.55905 c -1.363747,-1.801325 -7.1092,-4.577074 -5.144773,-6.972251 h 0.111947 c 1.957829,2.912338 5.679503,4.591915 8.252662,6.902388 0.956997,0.859196 1.63545,2.659313 3.266936,2.567119 l -0.670999,-1.040947 h -0.111945 v -0.311839 l 0.111945,0.311839 0.894211,0.728472 -1.006156,-2.288939 c 0.426568,0.01703 0.784327,0.11102 1.117418,-0.05461 -0.0074,-0.07614 -0.01253,-0.150357 -0.01911,-0.226099 L 79.66891,86.044884 76.690716,83.031917 73.298182,79.576276 71.947994,76.472488 c 0.98775,0.03896 1.301148,0.140635 2.012995,-0.520156 l -0.111944,-0.312474 1.00684,-0.415998 c -0.03926,-0.447403 -0.354433,-1.312894 0.354953,-1.463932 0.534695,-0.113827 1.681304,0.882299 1.855995,0.0013 0.197284,-0.995593 -0.874092,-1.413356 -1.52152,-1.948521 -0.395794,-0.327113 -0.137712,-0.771052 -0.437548,-1.126051 -0.369064,-0.436925 -1.652597,-0.780779 -2.645768,-0.79643 z m 29.560102,28.75402 c -0.0125,0.01625 -0.0247,0.03289 -0.0375,0.04892 0.003,0.0099 0.004,0.01995 0.007,0.02989 0.0234,0.0023 0.0374,-0.0031 0.0458,-0.01332 -0.006,-0.0218 -0.009,-0.04353 -0.015,-0.06541 z m -8.200111,0.16069 c -0.01066,0.02226 -0.02138,0.04445 -0.03211,0.06671 -0.0013,0.0086 -0.0013,0.01757 -0.0039,0.02603 -0.0039,0.01472 -0.0039,0.01248 -0.0069,0.02604 l 0.03818,-0.0069 c 0,-0.01202 0.0019,-0.02642 5.24e-4,-0.03683 5.22e-4,-0.02496 0.0026,-0.05 0.0039,-0.07496 z m -0.177472,0.584299 c -0.02028,0.04944 -0.03585,0.09053 -0.07509,0.184189 h 0.07509 z"
     transform="matrix(3.1127643,0,0,3.1127643,-41.24351,-34.274962)" />
  <path
     id="path166-0"
     clip-path="url(#clipPath277-3-7)"
     style="fill:#ffffff;stroke:none;stroke-width:0.32;filter:url(#filter135-18)"
     d="m 121.80078,60.513672 c -2.03936,4.525122 1.11897,7.80391 1.20313,12.34375 0.0438,2.37344 -1.96004,5.071454 -2.3418,7.496094 -0.44448,2.82304 0.62904,5.863627 -0.13672,8.638672 -0.60384,2.18752 -2.53006,6.857897 -1.46094,8.960937 1.04896,2.063035 4.06678,5.959215 6.25782,6.802735 3.26688,1.25728 4.69346,-1.40952 7.03906,2.47656 -3.41504,1.00448 -7.59231,6.57589 -10.86719,6.46485 -1.45504,-0.0493 -2.47388,-2.15019 -3.54492,-2.96875 -1.95808,-1.49536 -4.26511,-2.09465 -6.70703,-1.97657 -8.75968,0.42368 -12.243322,12.2879 -5.11914,17.42774 3.60576,2.60128 8.76965,2.38333 12.15429,-0.49219 1.1712,-0.9952 2.03038,-3.47757 3.6211,-3.72461 5.56448,-0.864 16.12719,3.44602 19.42383,-2.89062 h 2.55859 v -1.91993 l 4.80078,-0.95898 c -0.24288,1.92384 -0.27046,3.56009 0.33594,5.43945 4.6928,14.544 26.83038,1.21466 16.24414,-9.89062 -2.77088,-2.90656 -6.99953,-2.8288 -10.17969,-4.83008 v -0.31836 l 8,-1.92187 c -0.424,-2.28481 0.32485,-8.119296 -1.46875,-9.712896 -1.18848,-1.05632 -7.54204,0.904612 -9.0918,1.394532 l 1.2793,2.240234 c -1.91808,-1.95296 -4.58537,-3.725511 -5.43945,-6.400391 l 1.59961,0.320313 c 0.91904,-7.90688 -9.01129,-8.564388 -13.75977,-11.673828 -2.80064,-1.8336 -3.69032,-4.185291 -5.75976,-6.566406 3.12352,0.9792 2.92078,-1.02198 4.80078,-2.88086 -0.92384,-2.7136 1.2726,-5.362982 0.0586,-8.232422 -1.71648,-4.055682 -6.94048,-1.030777 -9.66016,-1.154297 -1.31456,-0.05984 -2.49168,-1.248027 -3.83984,-1.492187 z m 1.60156,1.919922 V 65.3125 h -0.64062 c -0.39808,-1.2688 -0.85826,-2.376506 0.64062,-2.878906 z m 10.23828,24 c 3.42496,1.47392 8.62,2.504841 12.16016,2.238281 l 3.52149,12.480465 -5.76172,0.64063 c -1.01728,-4.724164 -5.90297,-5.072377 -9.59961,-7.041017 z m -25.52734,1.423828 c -0.002,0.0032 -0.004,0.0066 -0.006,0.0098 -0.001,0.02857 0.002,0.05737 0,0.08594 0.004,-0.03542 0.002,-0.06142 0.006,-0.0957 z m 41.84766,8.175781 c 3.94464,1.36928 5.07694,7.893287 4.80078,11.519527 -2.04928,-0.59968 -4.51534,-9.350887 -4.80078,-11.519527 z m -16.95899,7.679687 h 2.24024 l -1.91992,1.91992 z m 16.13477,1.21094 c 1.91919,-0.14861 3.17121,1.79674 2.10547,3.9082 2.54432,0.89504 -0.82251,4.99122 -2.34571,5.53906 -2.46368,0.8864 -6.54248,-1.43061 -5.87304,-4.25781 0.46016,-1.94368 3.04862,-3.78995 4.69726,-4.72851 0.49374,-0.28116 0.97313,-0.42665 1.41602,-0.46094 z m 5.625,3.26953 h 0.95898 l 0.32032,0.32031 v 0.31836 0.32031 z m -17.59961,1.91992 h 0.63867 l 0.32031,2.87891 -2.56054,-0.32031 z m -24.98633,2.23047 c 1.43074,0.0319 2.83064,0.62049 3.86524,1.92969 -3.36,0.0973 -4.16486,1.67857 -6.4004,3.51953 v 0.32031 l 7.36133,3.19922 c -2.61344,5.48448 -10.97676,2.81741 -11.1582,-2.87891 -0.11264,-3.54002 3.1844,-6.16009 6.33203,-6.08984 z m 47.91016,0.20313 c 0.87888,0.0445 2.15101,1.17238 2.64844,1.72656 1.72989,1.928 2.11143,4.7517 0.85351,7.03906 -2.19488,3.99136 -8.41904,3.99072 -10.61328,0 -1.43712,-2.61312 -0.40615,-4.95518 0.82617,-7.35938 h 0.32031 c 1.2112,3.72192 2.48615,6.61423 6.40039,4.48047 v -0.32031 l -1.91992,-2.24023 c -1.49024,-0.2864 -1.56665,-1.51766 -1.59961,-2.88086 l 2.24024,0.32031 c 0.1274,-0.5826 0.44426,-0.78587 0.84375,-0.76562 z m 0.11523,3.64648 0.32031,0.32031 z m -50.56055,2.87891 0.32032,0.32031 z m -0.63867,0.32031 0.32032,0.32031 z m 47.67969,0.32031 0.32031,0.32031 z"
     transform="matrix(1.203083,0,0,1.203083,184.13669,124.85797)" />
</svg>
